# xmcd
#
# Track frame offsets: 
#        150
#        12401
#        25481
#        39562
#        51596
#        67603
#        80019
#        91418
#        113973
#        125084
#
# Disc length: 1934 seconds
#
# Revision: 0
# Processed by: cddbd v1.5.2PL0 Copyright (c) Steve Scherf et al.
# Submitted via: ExactAudioCopy v1.0b3
#
DISCID=87078c0a
DTITLE=Etta James - 7 top ten hits
DYEAR=2008
DGENRE=R&B
TTITLE0=The wallflower (Roll with me Henry)
TTITLE1=At last
TTITLE2=All I could do was cry
TTITLE3=Something's got a hold on me
TTITLE4=Trust in me
TTITLE5=Pushover
TTITLE6=Tell mama
TTITLE7=Respect yourself (Live)
TTITLE8=Hard to handle (Live)
TTITLE9=Drown in my own tears (Live)
EXTD=
EXTT0=
EXTT1=
EXTT2=
EXTT3=
EXTT4=
EXTT5=
EXTT6=
EXTT7=
EXTT8=
EXTT9=
PLAYORDER=
